Results
version=1
nRows=22
nColumns=24
inDegrees=yes
endheader
time	pelvis_tilt	pelvis_list	pelvis_rotation	pelvis_tx	pelvis_ty	pelvis_tz	hip_flexion_r	hip_adduction_r	hip_rotation_r	knee_angle_r	ankle_angle_r	subtalar_angle_r	mtp_angle_r	hip_flexion_l	hip_adduction_l	hip_rotation_l	knee_angle_l	ankle_angle_l	subtalar_angle_l	mtp_angle_l	lumbar_extension	lumbar_bending	lumbar_rotation
      0.89200000	     -2.73488931	     -3.97528773	     -2.14681129	     -0.17848296	      1.06137427	      0.31879535	     -2.75024722	      8.78718593	      2.08738521	    -18.52606794	     11.84708929	    -11.88393911	     -4.10447675	     23.84639740	     -2.01140470	     -4.14556218	     -0.09663121	      5.90168946	      2.06635068	     -7.32068419	      3.19150047	      8.87708026	      2.31582042
      0.89616667	     -2.75637263	     -4.03137264	     -2.06140822	     -0.17249657	      1.06080477	      0.31831399	     -2.71675872	      8.77192643	      1.70377973	    -19.20940775	     11.71632178	    -11.36041719	     -4.11301561	     23.86811123	     -1.97369922	     -3.53854202	     -0.46977239	      5.96545670	      2.08595263	     -7.37279987	      3.06983682	      8.96412638	      2.33124224
      0.90033333	     -2.67382906	     -4.04445045	     -2.13790124	     -0.16640546	      1.06051343	      0.31835373	     -2.80115022	      8.72932099	      1.64046428	    -19.91873514	     11.65972258	    -11.29436583	     -4.11320758	     23.74467064	     -1.98763816	     -3.36842135	     -0.86144525	      5.93128148	      2.07814746	     -7.38181130	      3.18789426	      8.93950160	      2.34478886
      0.90450000	     -2.62867296	     -4.07302852	     -1.98408941	     -0.16036344	      1.06006846	      0.31742488	     -2.77565432	      8.62979041	      1.03085237	    -20.72557093	     11.79098235	    -10.19900444	     -4.09688326	     23.64694317	     -1.85338707	     -2.38818904	     -1.22405513	      5.72996902	      1.08224309	     -7.56030153	      3.15623526	      9.06661694	      2.34470246
      0.90866667	     -2.55874889	     -4.06317069	     -2.08729974	     -0.15425643	      1.05981024	      0.31745848	     -2.78085598	      8.54517760	      0.94052032	    -21.55644784	     11.65215967	    -10.15261449	     -4.09527361	     23.51387706	     -1.84986065	     -2.23656506	     -1.65032879	      5.66088838	      1.09487052	     -7.56882720	      3.20994546	      9.01529215	      2.35395148
      0.91283333	     -2.51920290	     -4.07967985	     -2.01283772	     -0.14822105	      1.05943648	      0.31692521	     -2.70015504	      8.45281316	      0.50385138	    -22.41954168	     11.12230428	     -9.49489139	     -4.06904200	     23.44728101	     -1.76811883	     -1.80731311	     -2.12657634	      5.37953277	      0.73354390	     -7.62626466	      3.11085997	      9.02028103	      2.39056255
      0.91700000	     -2.45011118	     -4.03822299	     -2.00200626	     -0.14207715	      1.05917764	      0.31637981	     -2.61908576	      8.27276556	      0.07342422	    -23.38221150	     10.89081200	     -8.88558835	     -4.01431956	     23.28945727	     -1.64016755	     -1.34844158	     -2.53073018	      5.06733261	      0.06544682	     -7.69593509	      3.04921448	      8.97360805	      2.43243357
      0.92116667	     -2.40503266	     -3.93679610	     -2.12874435	     -0.13576099	      1.05899972	      0.31616659	     -2.49673968	      8.03193823	     -0.16087148	    -24.40236268	     10.69476006	     -8.71754076	     -3.99158783	     23.10449933	     -1.52056056	     -1.14413553	     -2.89588814	      4.91022937	     -0.09240707	     -7.71575434	      3.02211985	      8.95063967	      2.43727400
      0.92533333	     -2.28925987	     -3.88419938	     -2.08718128	     -0.12967707	      1.05884231	      0.31540316	     -2.39386787	      7.80541242	     -0.62926441	    -25.47786139	     10.42950491	     -7.83935047	     -3.81174490	     22.85640488	     -1.34968995	     -0.44120022	     -3.23418023	      4.27547717	     -1.49345707	     -7.82516872	      3.03411206	      8.93897126	      2.51717585
      0.92950000	     -2.22845034	     -3.81759009	     -2.12792255	     -0.12356887	      1.05865584	      0.31515161	     -2.20315051	      7.60306623	     -0.94310591	    -26.60150433	      9.91023269	     -7.51181941	     -3.75339234	     22.70514751	     -1.24480964	     -0.33567084	     -3.67585654	      4.02239151	     -1.66854114	     -7.85071673	      2.96743666	      8.77869150	      2.54368816
      0.93366667	     -2.17353311	     -3.66749963	     -2.22138513	     -0.11724473	      1.05854980	      0.31481608	     -1.97929098	      7.27959021	     -1.27025456	    -27.79818252	      9.51086082	     -7.26807418	     -3.71316880	     22.49764109	     -1.05368790	     -0.22979408	     -4.03334665	      3.80641218	     -1.83592699	     -7.86441045	      2.90551969	      8.69893575	      2.55686980
      0.93783333	     -2.03897151	     -3.54886693	     -2.29090060	     -0.11109908	      1.05856026	      0.31429174	     -1.79718393	      6.96330564	     -1.57579846	    -29.01980667	      8.69193106	     -6.45703964	     -3.53965374	     22.17982315	     -0.87301887	      0.20958130	     -4.31159986	      3.13034629	     -2.82686441	     -7.91134715	      2.96024985	      8.59533986	      2.63480755
      0.94200000	     -1.95538347	     -3.40754465	     -2.33018166	     -0.10498489	      1.05848370	      0.31375500	     -1.51300510	      6.62215767	     -1.95867616	    -30.33561382	      8.10477277	     -5.99321781	     -3.33547270	     21.94770890	     -0.66097408	      0.50210267	     -4.65085725	      2.64024864	     -3.64366587	     -7.94656493	      2.87103117	      8.41353243	      2.69501519
      0.94616667	     -1.87114404	     -3.28144440	     -2.33951687	     -0.09895176	      1.05839902	      0.31337827	     -1.19404631	      6.31747686	     -2.32591496	    -31.70059037	      7.52390717	     -5.67957222	     -3.22341293	     21.76077874	     -0.47821838	      0.56140376	     -5.07102407	      2.34844750	     -4.01869180	     -7.96133384	      2.76354265	      8.17810708	      2.73318656
      0.95033333	     -1.76084460	     -3.05813731	     -2.47101203	     -0.09270167	      1.05847287	      0.31287162	     -0.87858645	      5.85569292	     -2.58292478	    -33.10144872	      6.66657611	     -5.19774174	     -2.99816396	     21.43483816	     -0.20842619	      0.85422384	     -5.30854579	      1.82037437	     -4.79899348	     -7.98508833	      2.81814303	      8.07251371	      2.77669758
      0.95450000	     -1.69926396	     -2.90178378	     -2.47892665	     -0.08675821	      1.05838561	      0.31244738	     -0.45790057	      5.50193817	     -2.92675101	    -34.57395119	      5.98675591	     -4.89875442	     -2.87717822	     21.27603296	      0.00480373	      0.93402342	     -5.73329009	      1.54305594	     -5.17104005	     -7.99470247	      2.65135183	      7.74328090	      2.81846995
      0.95866667	     -1.60869079	     -2.67182421	     -2.58542473	     -0.08064788	      1.05843130	      0.31197767	     -0.04526090	      5.03471912	     -3.16332313	    -36.06467500	      4.98929992	     -4.48637082	     -2.72289138	     21.01498417	      0.27811568	      1.08496190	     -6.04352465	      1.16640080	     -5.71737067	     -8.00684297	      2.61710533	      7.50154868	      2.85198395
      0.96283333	     -1.51515042	     -2.43676118	     -2.65975681	     -0.07463872	      1.05846861	      0.31149458	      0.40112229	      4.56311622	     -3.40655799	    -37.60462265	      4.07939748	     -4.17250142	     -2.56445152	     20.77272604	      0.56298459	      1.24211102	     -6.38244852	      0.82196589	     -6.27092327	     -8.01754510	      2.53697567	      7.21579221	      2.88669201
      0.96700000	     -1.45926640	     -2.16318348	     -2.74003618	     -0.06856968	      1.05847208	      0.31071219	      0.91844170	      4.01069024	     -3.66484626	    -39.18647635	      3.18012100	     -3.99171699	     -2.00069595	     20.53123640	      0.91871107	      1.65743878	     -6.63685023	      0.13442006	     -7.59559548	     -8.04125820	      2.61107909	      7.09451427	      2.93194071
      0.97116667	     -1.35867470	     -1.91262438	     -2.79995712	     -0.06266355	      1.05853127	      0.31030916	      1.41098961	      3.53050845	     -3.83698883	    -40.77371685	      2.28085503	     -3.67295289	     -1.87483310	     20.31055471	      1.20746513	      1.70109564	     -7.03117537	      0.05255054	     -7.68672696	     -8.04116920	      2.47501345	      6.69414281	      2.95177340
      0.97533333	     -1.24428567	     -1.60410694	     -2.91240391	     -0.05658642	      1.05868665	      0.30984887	      1.90244906	      2.96934657	     -3.94711018	    -42.34263610	      1.07007430	     -3.42040946	     -1.63657607	     20.03932341	      1.55609142	      1.69036750	     -7.36566561	     -0.16343364	     -8.13202400	     -8.04886787	      2.52493539	      6.43946992	      2.95537512
      0.97950000	     -1.16687856	     -1.30838092	     -2.99724602	     -0.05069693	      1.05875036	      0.30934967	      2.47186672	      2.42918367	     -4.04397985	    -43.95131948	      0.01220435	     -3.26144894	     -1.40328384	     19.83175433	      1.89508269	      1.76244390	     -7.72945159	     -0.35494537	     -8.53926483	     -8.05673723	      2.46919084	      6.07988015	      2.96831832
